<svg t="1711630169263" class="icon" viewBox="0 0 1024 1024" version="1.1" xmlns="http://www.w3.org/2000/svg" p-id="1511" width="64" height="64"><path d="M854.299408 435.216398H844.776473V281.620675a102.397148 102.397148 0 0 0-102.397148-102.397148h-153.595723v-9.522935C588.783602 76.41679 512.446528-1.712234 419.162726 0.028518A166.344167 166.344167 0 0 0 255.992871 166.423883V179.223527H102.397148A102.397148 102.397148 0 0 0 0 281.620675v179.19501a51.198574 51.198574 0 0 0 51.198574 51.198574h35.839002c50.225801 0 92.874213 40.958859 92.157433 91.287057A89.597505 89.597505 0 0 1 89.597505 691.209268H51.198574a51.198574 51.198574 0 0 0-51.198574 51.198574v179.19501a102.397148 102.397148 0 0 0 102.397148 102.397148h179.19501a51.198574 51.198574 0 0 0 51.198574-51.198574v-35.839002c0-50.225801 40.958859-92.874213 91.287057-92.157433A89.597505 89.597505 0 0 1 511.985741 934.402495v38.398931a51.198574 51.198574 0 0 0 51.198574 51.198574h179.19501a102.397148 102.397148 0 0 0 102.397148-102.397148v-153.595723h12.799644a166.344167 166.344167 0 0 0 166.395365-163.169855C1025.712234 511.553472 947.58321 435.216398 854.299408 435.216398z m0.921574 255.99287h-35.839002a51.198574 51.198574 0 0 0-51.198574 51.198574v153.595723a51.198574 51.198574 0 0 1-51.198574 51.198574H588.783602v-9.522935c0-93.283802-76.337074-171.412826-169.620876-169.620876A166.344167 166.344167 0 0 0 255.992871 934.402495v12.799644H127.996435a51.198574 51.198574 0 0 1-51.198574-51.198574v-127.996436h9.522935c93.283802 0 171.412826-76.337074 169.620876-169.620876A166.344167 166.344167 0 0 0 89.597505 435.216398H76.797861V307.219962a51.198574 51.198574 0 0 1 51.198574-51.198574h153.595723a51.198574 51.198574 0 0 0 51.198574-51.198574v-35.839002c0-50.225801 40.958859-92.874213 91.287057-92.157433A89.597505 89.597505 0 0 1 511.985741 166.423883V204.822814a51.198574 51.198574 0 0 0 51.198574 51.198574h153.595723a51.198574 51.198574 0 0 1 51.198574 51.198574v153.595723a51.198574 51.198574 0 0 0 51.198574 51.198574h38.398931a89.597505 89.597505 0 0 1 89.597504 87.907952c0.921574 50.328198-41.726838 91.287058-92.157433 91.287057z" fill="#1296db" p-id="1512"></path></svg>